# xmcd CD database file
#
# Track frame offsets:
#	187
#	20890
#	36517
#	61035
#	92562
#	109312
#	138040
#	162270
#	194560
#	208122
#	222392
#	254532
#
# Disc length: 3730 seconds
#
# Revision: 0
# Processed by: cddbd v1.5.2PL0 Copyright (c) Steve Scherf et al.
# Submitted via: CDex 1.51
#
DISCID=b50e900c
DTITLE=Roger Kellaway - In Japan
DYEAR=1991
DGENRE=Jazz
TTITLE0=People will say we're in love
TTITLE1=Dancing in the dark
TTITLE2=Lullaby of broadway
TTITLE3=Singin in the rain
TTITLE4=Soon it's gonna rain
TTITLE5=Try to remember
TTITLE6=I've grown accustomed to her face
TTITLE7=Darn that cream
TTITLE8=We kiss in a shadow
TTITLE9=A sleepin' bee
TTITLE10=Time on my hands
TTITLE11=I want to be happy
EXTD=YEAR: 1991
EXTT0=
EXTT1=
EXTT2=
EXTT3=
EXTT4=
EXTT5=
EXTT6=
EXTT7=
EXTT8=
EXTT9=
EXTT10=
EXTT11=
PLAYORDER=
